<?xml version="1.0" encoding="UTF-8" standalone="no"?>
<!-- Created with Inkscape (http://www.inkscape.org/) -->

<svg
   xmlns:dc="http://purl.org/dc/elements/1.1/"
   xmlns:cc="http://creativecommons.org/ns#"
   xmlns:rdf="http://www.w3.org/1999/02/22-rdf-syntax-ns#"
   xmlns:svg="http://www.w3.org/2000/svg"
   xmlns="http://www.w3.org/2000/svg"
   xmlns:sodipodi="http://sodipodi.sourceforge.net/DTD/sodipodi-0.dtd"
   xmlns:inkscape="http://www.inkscape.org/namespaces/inkscape"
   id="svg3336"
   version="1.1"
   inkscape:version="0.91 r13725"
   width="562.5"
   height="360"
   viewBox="0 0 562.5 360"
   sodipodi:docname="fyke3.svg">
  <metadata
     id="metadata3342">
    <rdf:RDF>
      <cc:Work
         rdf:about="">
        <dc:format>image/svg+xml</dc:format>
        <dc:type
           rdf:resource="http://purl.org/dc/dcmitype/StillImage" />
        <dc:title></dc:title>
      </cc:Work>
    </rdf:RDF>
  </metadata>
  <defs
     id="defs3340" />
  <sodipodi:namedview
     pagecolor="#ffffff"
     bordercolor="#666666"
     borderopacity="1"
     objecttolerance="10"
     gridtolerance="10"
     guidetolerance="10"
     inkscape:pageopacity="0"
     inkscape:pageshadow="2"
     inkscape:window-width="1920"
     inkscape:window-height="1004"
     id="namedview3338"
     showgrid="false"
     inkscape:zoom="0.72533333"
     inkscape:cx="-438.05383"
     inkscape:cy="210.11029"
     inkscape:window-x="-4"
     inkscape:window-y="-4"
     inkscape:window-maximized="1"
     inkscape:current-layer="svg3336" />
  <path
     style="fill:whitesmoke"
     d="m 544.2789,195.34957 c 0.0287,-2.42695 -0.55156,-4.95536 -1.82557,-8.85903 -2.69276,-8.2554 -7.83201,-12.58517 -60.1264,-50.6506 -65.42245,-47.626925 -60.4044,-45.737486 -100.47095,-37.79329 -27.49624,5.44998 -49.73257,4.16117 -73.05217,-1.09407 -17.92357,-4.0403 -26.76179,-5.937629 -31.02461,-4.029749 -6.84506,1.236304 -4.41791,0.644831 -22.37431,5.317305 -0.0106,0.927159 -12.25272,1.852924 -27.19617,2.056974 -21.86505,0.29863 -30.57538,-0.572029 -44.65046,-4.461027 -23.95356,-6.618225 -36.85529,-6.54772 -45.01603,0.244935 -3.51482,2.9294 -12.89281,8.635412 -20.8411,12.680062 -13.44175,6.84716 -16.15829,7.38515 -39.38497,7.81412 -23.6668,0.43699 -25.18065,0.75381 -29.45439,6.12942 -5.50197,6.91254 -9.0557,19.06991 -11.661,39.8383 -3.96409,31.67349 0.47513,76.67146 8.84305,89.60674 4.64561,7.17766 4.80505,7.22602 28.267418,8.8585 21.03419,1.46385 25.41172,2.54579 40.444802,9.9998 9.27638,4.59741 19.38829,10.42619 22.47869,12.95252 7.32002,5.97286 19.10975,6.06459 47.9789,0.37662 17.87281,-3.52164 26.74023,-4.0983 42.52572,-2.77523 10.96991,0.91934 21.74133,1.7094 23.92091,1.7576 2.18959,0.0479 8.03175,1.59386 12.99038,3.43401 12.20743,4.52631 21.54032,4.33731 46.32423,-0.932 23.98184,-5.09822 53.59421,-4.27736 75.95045,2.10477 14.40246,4.11272 36.02241,5.09215 38.12225,1.72852 0.76442,-1.21693 26.59917,-19.26028 57.41726,-40.09907 47.2706,-31.96899 56.55603,-39.15251 59.47664,-45.96526 1.50132,-3.49168 2.25879,-5.8145 2.33743,-8.24087 z m -7.9483,-1.03868 c -0.0507,4.2903 -1.42124,8.5697 -4.0554,11.4486 -4.72122,5.15872 -92.46964,64.66502 -93.61573,63.47963 -0.44462,-0.45823 0.89721,-7.3835 2.97183,-15.38837 5.50014,-21.16184 6.32687,-100.52569 1.27074,-122.06593 -4.29374,-18.34883 -4.27747,-18.03208 -0.81268,-15.87562 11.46654,7.13886 87.25089,63.13892 90.51685,66.88939 2.54571,2.92133 3.78503,7.22212 3.72439,11.5123 z m -95.86441,-1.88669 c -0.31221,26.45175 -3.54651,53.06271 -9.6107,72.86958 -4.03612,13.20385 -7.36801,17.58098 -13.31759,17.51076 -2.14985,-0.0254 -8.00357,-14.14905 -10.78414,-25.97939 -1.16155,-4.95933 -3.01233,-20.15524 -4.11174,-33.76867 -3.06459,-37.75649 -0.19713,-74.80586 7.75514,-100.36987 8.33703,-26.812373 14.82494,-27.444459 22.2071,-2.16504 5.58426,19.16012 8.18414,45.45101 7.86193,71.90263 z m -7.24842,3.2127 c 0.23447,-10.54495 0.0101,-21.19095 -0.81248,-31.14451 -4.38771,-53.59914 -12.57489,-62.35959 -19.74209,-21.12194 -5.16179,29.77652 -3.44026,97.44046 3.02888,118.73412 6.98909,22.99474 16.52631,-20.77268 17.52569,-66.46767 z m -49.43403,83.0846 c -0.002,0.13162 -0.003,0.21901 -0.10302,0.2552 -0.37351,0.29449 -4.41051,0.0166 -8.98337,-0.61534 -9.89453,-1.36909 -10.30257,-3.23224 -2.1168,-9.60361 l 6.14686,-4.78173 2.81482,7.23386 c 1.34902,3.48004 2.26237,6.5907 2.21151,7.51126 z m 2.03699,-172.58088 c -0.012,1.01866 -0.97018,4.2462 -2.44207,7.78651 l -3.06701,7.35414 -7.40943,-6.87013 -7.40943,-6.87011 9.77499,-1.21235 c 5.37823,-0.66623 10.09113,-0.88354 10.47644,-0.48402 0.0994,0.0505 0.0982,0.15062 0.0965,0.29619 z m -8.67485,21.54172 -16.19528,13.06157 c -8.91542,7.18514 -16.88528,13.05691 -17.72522,13.04699 -0.83994,-0.01 -8.51878,-6.08485 -17.07186,-13.49987 l -15.54196,-13.48182 10.9176,-9.05285 c 9.72577,-8.05691 12.20751,-9.03763 22.5168,-8.91594 10.31928,0.1218 12.75722,1.15743 22.33958,9.48755 z m -1.5277,129.43214 -10.97814,9.09781 c -9.86723,8.18023 -12.17802,9.08012 -22.92727,8.95325 -10.92924,-0.129 -12.83948,-0.96651 -22.35568,-9.81791 l -10.40651,-9.67686 14.71963,-11.74422 c 8.0968,-6.45933 15.92506,-12.19694 17.41172,-12.75216 1.47665,-0.55534 9.85106,5.0522 18.61419,12.46433 z m 0.42328,-116.35405 c 0.008,7.75775 -3.20326,35.84349 -4.38714,37.01228 -0.52621,0.52331 -5.72032,-3.39602 -11.538,-8.71023 l -10.57671,-9.66133 12.71779,-10.75273 c 6.99028,-5.91372 13.1129,-10.33616 13.59695,-9.82909 0.13835,0.14065 0.20018,0.83303 0.18711,1.9411 z m -1.45297,100.22296 c -0.0378,3.20584 -0.2825,5.29388 -0.72221,5.2673 -0.81948,-0.0491 -6.81164,-4.98556 -13.31148,-10.96863 l -11.81244,-10.87717 10.89951,-9.21467 c 7.36403,-6.22948 11.33907,-8.32685 12.27721,-6.46915 1.48525,2.95263 2.84292,22.64562 2.66941,32.26232 z m -2.69615,-48.63796 c -0.0279,2.36545 -6.21625,8.9664 -14.59466,15.56028 -16.52464,13.00461 -12.03316,13.7538 -36.19119,-6.04368 -6.12121,-5.01786 -11.12713,-9.62917 -11.11984,-10.24729 0.0116,-0.98566 11.12957,-10.06497 28.05224,-22.90066 5.3382,-4.05224 5.388,-4.03537 19.63012,7.73091 8.22044,6.7898 14.25125,13.53498 14.22333,15.90044 z m -34.52122,-33.14408 -8.68894,7.48444 c -4.78892,4.11612 -12.22168,10.2373 -16.53169,13.60204 l -7.83275,6.11768 -16.22349,-13.35639 c -8.92393,-7.34613 -15.09357,-13.34305 -13.71367,-13.32676 9.84581,-10.60176 20.94499,-21.48179 30.78623,-26.61275 0.82995,0.01 8.41115,5.88411 16.8471,13.05466 z m -3.71161,65.35566 c -0.13819,3.23536 -4.59352,6.20191 -12.8732,12.90409 -8.52203,6.90041 -16.51908,12.53437 -17.749,12.51985 -1.23991,-0.0146 -3.50153,-1.58531 -5.02914,-3.49108 -1.51761,-1.90567 -7.33201,-6.65188 -12.90643,-10.54587 -3.12718,-2.79989 -10.03403,-5.64916 -8.79444,-9.84402 -0.18493,-5.51382 0.45173,-6.92234 4.87605,-12.34512 1.22991,0.0145 6.93621,-3.87529 12.70292,-8.6454 l 10.46312,-8.67534 11.99993,10.24361 c 11.95047,10.19821 17.44348,14.21229 17.31019,17.87928 z m -12.75481,52.01731 -11.7392,2.4045 c -6.45607,1.3235 -13.05914,2.39245 -14.67903,2.37333 -1.61989,-0.0191 -4.08312,-1.45474 -5.47273,-3.19074 -2.01042,-2.51697 -0.75647,-4.53972 6.19831,-9.98668 l 8.71122,-6.83088 8.49073,7.61348 z m 1.64353,-168.90089 -8.84229,6.92065 -8.8323,6.92079 -8.37435,-7.30652 c -7.38456,-6.43546 -7.97032,-7.64539 -4.89022,-10.17728 2.87802,-2.35734 5.9674,-2.28687 17.21664,0.38586 z m -23.76005,83.7459 -8.98551,8.03947 c -4.94252,4.4213 -9.46981,6.70681 -12.80784,9.06215 -2.92986,-1.72404 -4.02171,-0.72626 -4.01509,-16.53864 0.0335,-20.63831 -0.72,-22.03359 9.14454,-15.58246 3.06301,3.15226 4.71169,4.12147 8.95636,7.98779 z m 0.59964,-64.35973 -9.30437,7.94086 c -5.11189,4.36643 -11.10264,8.63088 -13.30279,9.4778 -2.21014,0.84681 -4.60669,0.54004 -5.33233,-0.68114 0.39929,-1.63178 1.8385,-4.09856 2.50732,-12.46792 0.0305,-2.58515 4.27224,-6.09483 7.14853,-10.00005 l 5.29516,-7.18383 6.49422,6.4589 z m -2.33437,129.99165 c -0.11141,0.96616 -1.06111,1.78275 -2.62551,2.99329 -7.98342,6.17406 -12.1555,8.02066 -12.12428,5.37505 0.0157,-1.3516 -0.75673,-1.97622 -1.73379,-1.38331 -0.96707,0.59303 -1.34331,-2.27004 -0.82495,-6.36387 0.52835,-4.09369 -0.22523,-9.72587 -1.65243,-12.51352 -1.87698,-3.65556 -1.93733,-5.32116 -0.22341,-6.49026 3.4848,3.00233 8.49776,7.01764 11.59547,9.77169 5.6017,4.97294 7.76792,7.00061 7.5889,8.61093 z M 279.70024,104.70892 c -0.0141,1.23624 -1.01437,3.75345 -2.21618,5.59386 -1.20181,1.84043 -2.17771,2.33471 -2.16311,1.09848 0.0141,-1.23624 1.01436,-3.75344 2.21617,-5.59387 1.20181,-1.84041 2.1777,-2.33469 2.16312,-1.09847 z m -21.14493,174.83519 c -0.0278,2.35421 -2.85503,1.25623 -9.14821,-0.20638 -2.97979,-0.0352 -5.57974,-1.74923 -6.33485,-3.01474 -3.34858,-2.68212 -2.19199,-1.53992 0.90047,-7.66071 2.70712,-2.28199 0.95485,-2.94671 5.53895,-4.11451 2.90241,-0.18686 4.46873,0.98067 6.15532,6.36356 1.88627,4.56353 2.89499,7.22009 2.88832,8.63273 z m 0.57138,-171.26694 c -0.15068,4.29345 -0.73908,10.08474 -2.05776,13.35487 -0.504,-0.51217 -0.0232,1.9626 -2.83176,-0.71484 -1.77393,-1.37225 -4.98991,-4.27367 -7.4284,-6.95815 l -7.2563,-7.98179 7.08642,-1.34946 c 10.5244,-2.00503 12.51342,-1.90997 12.4878,3.64937 z m -4.24117,17.86727 c -0.003,0.25198 -0.34443,0.37293 -0.51664,0.55941 -7.35122,3.44965 -15.70127,9.33521 -22.11171,14.41781 -7.6932,6.1569 -14.62304,11.18687 -15.39299,11.17779 -0.77995,-0.009 -8.21242,-5.77444 -16.51994,-12.81193 -8.30752,-7.03753 -15.39689,-13.06288 -15.74307,-13.38936 -0.34617,-0.32649 4.33589,-4.70978 10.40568,-9.74033 9.96817,-8.25842 12.19857,-9.12688 22.92707,-8.93569 6.79904,0.12106 13.68186,1.61727 16.0599,3.49133 6.73067,4.22002 9.77887,10.32097 17.29804,13.8257 0.47228,0.65606 2.88908,2.63675 3.60155,3.27904 0.12453,-0.38345 0.18098,-2.62445 0.0221,-1.87341 z m -0.68544,1.30382 c -304.38391,-298.01625 -152.15196,-149.007651 0,0 z m -1.07698,12.44794 c -2.6723,8.65209 -4.86743,9.92037 -5.07937,21.94594 -0.10096,8.55251 -0.93327,15.52215 -1.8529,15.4859 -0.90964,-0.0361 -6.49779,-4.46215 -12.4148,-9.83405 l -10.7555,-9.76528 10.97383,-8.73255 c 6.03709,-4.8016 12.23764,-9.04782 13.22581,-10.58165 2.45486,-3.7864 4.36276,-2.74938 5.90293,1.48169 z m -3.11474,102.9045 c -0.11648,1.3956 -0.61371,2.00619 -1.52335,1.9701 -1.38944,-0.0558 -7.82183,-4.97566 -14.29199,-10.93105 l -11.75303,-10.8273 12.0915,-10.22271 12.0915,-10.22271 0.36379,12.38943 c 0.20959,6.81422 1.1973,16.33453 2.20049,21.15372 0.65329,3.11425 0.93757,5.29489 0.82109,6.69052 z m -0.98393,13.03737 c -0.10892,0.75463 -5.10063,5.10669 -11.16492,9.67163 -9.54551,7.18784 -12.58856,8.27573 -22.70738,8.11636 -10.58877,-0.16688 -12.64805,-1.0873 -21.98571,-9.81354 l -10.30706,-9.63002 13.66171,-11.0788 c 20.15418,-16.33371 17.9528,-16.23096 36.25226,-1.67259 9.01602,7.16881 16.33001,13.65198 16.2511,14.40696 z m -3.82023,-65.24438 c 0.23121,4.13491 -4.16532,8.05111 -13.00905,15.09428 -8.11685,6.46219 -15.50684,11.50212 -16.42331,11.19722 -0.91646,-0.3049 -8.52742,-6.20003 -16.91659,-13.0976 -8.39918,-6.89771 -15.26709,-13.04654 -15.26979,-13.66478 0.0118,-0.98442 11.0085,-9.97533 28.01199,-22.88006 5.2978,-4.01921 5.39738,-3.98275 18.79926,6.95187 9.69731,7.91135 14.56627,12.26405 14.80749,16.39907 z m -37.01317,-32.99435 c 0.0567,3.67094 -5.56992,7.58631 -17.8284,17.55235 l -12.1576,9.89175 -13.88467,-11.54795 c -9.03198,-7.51104 -13.85548,-13.17416 -13.80975,-16.20113 0.0352,-2.97893 4.87994,-8.43969 13.42002,-15.17373 7.3288,-5.78643 14.00505,-10.51274 14.82499,-10.50307 0.82994,0.01 8.38227,5.78802 16.78964,12.83972 8.16967,6.85446 12.60399,9.90307 12.64577,13.14206 z m -0.94276,65.46914 c -0.13816,3.23282 -4.59348,6.19924 -12.87315,12.90057 -8.53203,6.90029 -16.17911,12.53838 -16.99905,12.52871 -0.81994,-0.01 -7.38278,-4.89227 -14.57296,-10.85005 -8.17078,-6.76007 -13.06312,-12.52251 -13.02001,-15.32775 0.0328,-2.7843 5.41469,-8.83773 14.13868,-15.90287 l 14.09561,-11.40735 11.96032,10.21155 c 11.92071,10.17707 17.40382,14.18305 17.27056,17.84719 z m -13.00218,51.79311 -13.73905,3.2274 c -12.67607,2.98077 -13.99557,2.93172 -17.11354,-0.64807 -3.09829,-3.55293 -2.64763,-4.45283 5.36706,-10.73413 l 8.75151,-6.85499 8.36203,7.50309 z m 1.76478,-169.00486 -8.42565,7.20658 -8.42565,7.20658 -8.48823,-6.97768 c -9.71633,-7.99387 -9.46246,-7.47261 -5.28166,-10.90548 2.44388,-2.00812 6.34301,-1.91149 16.89613,0.42776 z m -22.27601,19.01726 -8.7508,7.6418 c -4.79994,4.20313 -9.49122,7.67298 -10.40176,7.71368 -2.16129,0.0961 -1.84117,-3.30093 1.4745,-15.62384 2.97078,-11.06325 3.54331,-11.27385 11.93306,-4.42542 z m -2.34328,130.74675 c -6e-4,0.0512 -0.001,0.0887 -0.10132,0.11123 -0.51361,0.30299 -3.67497,2.94142 -7.0197,5.86383 l -6.10312,5.31264 -1.90632,-5.40717 c -3.06769,-8.68615 -4.90703,-22.30963 -2.98837,-22.1852 2.1585,0.14025 18.22758,14.71758 18.07884,16.30422 z m 0.67468,-65.63389 c -0.007,0.61812 -4.7478,4.86935 -10.54222,9.44717 -10.34735,8.18668 -10.54799,8.23977 -11.90898,3.23145 -0.75699,-2.80055 -1.33821,-8.632 -1.28715,-12.9588 0.051,-4.32682 0.76977,-10.14293 1.59266,-12.92483 1.47881,-4.97479 1.67815,-4.91698 11.82938,3.51164 5.68476,4.71331 10.32361,9.07525 10.31631,9.69337 z m -41.89809,-78.35994 c 0.0923,0.65561 -0.23194,1.8574 -0.74447,3.76365 -0.67974,2.51534 -2.28977,4.20343 -3.58452,3.75122 -3.92399,-1.37963 -4.07486,-5.54327 -0.23761,-6.98217 3.19439,-1.20005 4.42949,-1.62512 4.5666,-0.5327 z m -2.10087,154.26941 c 0.0799,1.70243 -0.78592,2.19052 -2.7213,1.78736 -3.92058,-0.82004 -5.84476,-4.71496 -3.48696,-7.05565 2.71185,-2.68274 4.69944,-1.61921 5.86324,3.14968 0.20998,0.84905 0.3317,1.55128 0.34502,2.11861 z m -5.06482,-17.41511 -13.82759,-12.14793 c -7.60168,-6.68072 -14.580142,-12.7835 -15.500978,-13.56563 -0.930835,-0.78223 4.101848,-6.06339 11.179268,-11.73332 8.71305,-6.98587 13.3121,-9.41997 14.25012,-7.55231 0.76216,1.51591 1.95543,12.26074 2.63837,23.8776 z m 1.29012,-117.77694 -1.53039,18.66501 c -0.85121,10.26451 -2.02775,20.9799 -2.63122,23.81188 l -1.10082,5.14688 -5.97594,-4.61572 c -3.29025,-2.53959 -9.16257,-7.4622 -13.05182,-10.93746 l -7.07593,-6.31823 15.68304,-12.87443 z m -4.49187,-6.64601 c -0.0235,1.98965 -30.167685,26.73946 -32.537526,26.71149 -0.769945,-0.009 -5.776373,-3.73031 -11.113172,-8.26966 -5.336789,-4.53935 -9.675742,-8.88989 -9.646562,-9.6679 0.1802,-5.09961 5.322283,-7.78753 15.677821,-8.19581 6.373405,-0.25096 16.409699,-1.57216 22.306169,-2.9331 10.30879,-2.37805 15.35994,-1.59929 15.31327,2.35498 z m -0.77078,65.3026 c -0.0185,1.56457 -30.796223,26.6126 -32.676097,26.59042 -0.729946,-0.009 -7.112797,-4.88908 -14.172992,-10.84533 -17.001961,-14.33767 -17.010741,-18.67749 -0.07191,-32.03497 6.945176,-5.48185 13.362173,-10.27342 14.266644,-10.64664 1.748709,-0.72777 32.679735,24.78746 32.654355,26.93652 z m -0.77143,65.35878 c -0.0576,4.87853 -8.51328,6.15893 -18.885083,2.86108 -5.858433,-1.86196 -14.940484,-3.43596 -20.190123,-3.49793 -7.179499,-0.0847 -10.106516,-1.20233 -11.797864,-4.48774 -1.23168,-2.40605 -2.2432,-4.82548 -2.2367,-5.37595 0.0169,-1.40866 19.502566,-17.04788 21.212447,-17.02769 2.409829,0.0284 31.921243,25.50183 31.897323,27.52823 z m -36.603899,-98.17125 -9.917484,8.20057 c -5.453607,4.50995 -10.477437,8.19396 -11.157387,8.18594 -1.52989,-0.0181 -0.99794,-12.04178 0.96965,-21.99445 1.7118,-8.61495 3.40267,-8.67862 12.996474,-0.47183 z m -0.916702,64.95662 -8.715755,7.21371 c -4.797154,3.96732 -9.196284,6.41011 -9.774734,5.42735 -2.12797,-3.57332 -3.80899,-29.76302 -1.90022,-29.64697 1.0693,0.0652 6.09418,3.91818 11.16972,8.56187 z"
     id="path3346"
     inkscape:connector-curvature="0"
     sodipodi:nodetypes="sssssccssssssssssssscssscssscssssssccsssssscsssssccsccccccccccccccscccsccccscccsccssccccsscccssssssssssccsccccccssssccccccsccssccccccccccccccccccccscccccccsscsscscsssssscccccscccccsccccsssssccccccccccccsccccccccsccsccccscsscscssscccccsssccssscccccccsccccccccscccssscccccccscsscsssscssscccsscccssscccccccccccssscssssssssssssssssccssccccsccc" />
</svg>
