<?xml version="1.0" encoding="UTF-8" standalone="no"?>
<!-- Created with Inkscape (http://www.inkscape.org/) -->

<svg
   xmlns:dc="http://purl.org/dc/elements/1.1/"
   xmlns:cc="http://creativecommons.org/ns#"
   xmlns:rdf="http://www.w3.org/1999/02/22-rdf-syntax-ns#"
   xmlns:svg="http://www.w3.org/2000/svg"
   xmlns="http://www.w3.org/2000/svg"
   xmlns:sodipodi="http://sodipodi.sourceforge.net/DTD/sodipodi-0.dtd"
   xmlns:inkscape="http://www.inkscape.org/namespaces/inkscape"
   id="svg3336"
   version="1.1"
   inkscape:version="0.91 r13725"
   width="480"
   height="280"
   viewBox="0 0 480 280"
   sodipodi:docname="fyke.svg">
  <metadata
     id="metadata3342">
    <rdf:RDF>
      <cc:Work
         rdf:about="">
        <dc:format>image/svg+xml</dc:format>
        <dc:type
           rdf:resource="http://purl.org/dc/dcmitype/StillImage" />
        <dc:title></dc:title>
      </cc:Work>
    </rdf:RDF>
  </metadata>
  <defs
     id="defs3340" />
  <sodipodi:namedview
     pagecolor="#ffffff"
     bordercolor="#666666"
     borderopacity="1"
     objecttolerance="10"
     gridtolerance="10"
     guidetolerance="10"
     inkscape:pageopacity="0"
     inkscape:pageshadow="2"
     inkscape:window-width="1920"
     inkscape:window-height="1004"
     id="namedview3338"
     showgrid="false"
     inkscape:zoom="1.7"
     inkscape:cx="240"
     inkscape:cy="151.76471"
     inkscape:window-x="-4"
     inkscape:window-y="-4"
     inkscape:window-maximized="1"
     inkscape:current-layer="svg3336" />
  <path
     style="fill:#DEDEDE"
     d="m 330.63597,11.57658 c 5.04306,5.096451 39.3108,35.246036 76.15053,66.999088 36.83972,31.753052 67.36375,58.715372 67.83116,59.916272 0.53234,1.36773 0.5281,3.00237 -0.0113,4.37543 -0.47781,1.21614 -30.61028,27.5117 -67.68627,59.06742 -36.75378,31.2815 -69.43337,59.50461 -72.62129,62.71802 -3.18793,3.21341 -7.85926,7.63094 -10.38075,9.81674 l -4.58452,3.97418 -7.33361,-0.41147 c -8.20679,-0.46045 -11.44497,-1.76945 -17.17255,-6.94174 -4.02415,-3.63401 -8.29314,-5.1588 -21.42188,-7.65143 -24.89583,-4.72674 -57.69571,-1.03825 -68.10593,7.65883 -8.27322,6.91173 -16.4786,8.48117 -24.7592,4.7357 -2.75026,-1.24398 -6.7619,-3.84772 -8.91474,-5.78606 -2.54632,-2.29263 -5.97328,-4.18907 -9.80598,-5.42654 -23.12439,-7.46622 -45.9052,-8.83798 -64.241098,-3.86838 -6.02952,1.6342 -7.124848,2.30294 -11.737942,7.16649 -6.90521,7.28014 -10.824045,9.18498 -18.853308,9.16415 -7.720904,-0.02 -11.81131,-1.89628 -18.231296,-8.36257 C 18.628171,238.37556 7.8468738,131.96868 27.260121,56.566053 34.412589,28.785296 46.068206,8.8351777 58.307877,3.4236837 c 5.477681,-2.421827 13.486314,-2.3391594 18.854588,0.1946464 2.275261,1.0739265 6.616954,4.4899619 9.648208,7.5912059 5.129113,5.247545 6.008621,5.770058 12.680937,7.533935 4.87634,1.289095 11.08641,2.047739 19.41522,2.371848 14.05383,0.546883 23.53025,-0.694196 39.40095,-5.160157 8.46431,-2.381828 10.57673,-3.365711 14.46729,-6.7383187 5.9937,-5.1957476 10.76293,-7.2252813 16.94115,-7.2092527 5.90283,0.015314 11.06327,2.1100093 15.98306,6.4877178 3.89186,3.4630586 11.21997,6.0457486 23.21647,8.1823296 17.28852,3.079073 32.39143,2.629884 51.61895,-1.535247 8.79348,-1.904873 10.16653,-2.487733 15.21698,-6.4595828 6.57236,-5.1687163 10.29773,-6.4125055 19.13801,-6.3895705 l 6.57707,0.017063 9.16921,9.2662793 z M 58.592433,19.722276 c -3.678374,3.74719 -9.065386,12.043582 -8.306296,12.792264 0.208926,0.206063 6.751941,2.340355 14.540034,4.742878 14.09072,4.346811 14.182322,4.361849 18.67518,3.065351 2.483258,-0.71658 4.515465,-1.48004 4.516027,-1.69659 5.62e-4,-0.216539 -1.25693,-2.90796 -2.794422,-5.98094 -2.503895,-5.004513 -3.43169,-5.944283 -8.895893,-9.010719 -3.355247,-1.882921 -7.289226,-4.382116 -8.742161,-5.553789 -1.452945,-1.171684 -3.221933,-2.146226 -3.931095,-2.165676 -0.709161,-0.01954 -2.986774,1.693807 -5.061374,3.807221 z m 247.646137,1.525061 -7.26508,2.955212 -4.40088,8.32785 c -4.19582,7.939811 -4.31507,8.359233 -2.55941,9.00163 1.21278,0.443768 7.64092,-0.967349 18.82843,-4.133226 9.34284,-2.64387 17.20456,-5.019402 17.4705,-5.278982 1.75376,-1.711856 -10.80051,-14.990841 -13.44669,-14.222894 -0.74898,0.217358 -4.63108,1.725051 -8.62687,3.35041 z m -122.6991,-0.383928 c -6.3232,2.763305 -6.71736,3.117633 -9.77495,8.78696 -1.75233,3.249144 -3.18697,6.258083 -3.18809,6.686511 -10e-4,0.428439 3.59096,1.862333 7.98238,3.18644 l 7.98439,2.407473 10.99917,-3.148655 c 12.32341,-3.52773 11.85121,-2.811603 7.16323,-10.863523 -2.36368,-4.059785 -3.63989,-5.19496 -8.23378,-7.323846 -2.99008,-1.385652 -5.64058,-2.539932 -5.88999,-2.565069 -0.24941,-0.02515 -3.41847,1.250035 -7.04236,2.833709 z m 85.53247,9.901006 -8.11507,1.07987 7.64686,2.543108 c 4.20577,1.398716 8.08108,2.380913 8.61179,2.182659 0.5307,-0.198244 1.64333,-2.042323 2.47249,-4.097949 1.50449,-3.72989 1.50348,-3.736532 -0.49672,-3.26254 -1.10235,0.261241 -5.65606,0.96092 -10.11935,1.554852 z m -48.58325,-1.175507 c -0.004,1.457825 1.82839,2.027601 4.35715,1.354999 l 2.44484,-0.650299 -2.26617,-0.679462 c -3.25053,-0.974606 -4.53334,-0.981735 -4.53582,-0.02527 z m -66.68183,1.659729 c -0.30963,0.488758 0.0735,0.890293 0.85133,0.892311 0.77785,0.002 1.71017,0.03444 2.07182,0.07218 0.36164,0.03754 0.80493,-0.361753 0.98507,-0.887548 0.41334,-1.206391 -3.14827,-1.276472 -3.90822,-0.07694 z m -53.4569,2.844712 c 0.28477,0.733732 1.33226,1.04452 2.68042,0.795277 2.73559,-0.505755 2.02136,-1.986273 -0.96194,-1.994012 -1.46379,-0.0038 -2.03151,0.39221 -1.71848,1.198735 z m 131.46107,2.191456 c -3.99444,1.105071 -7.20104,2.368046 -7.12579,2.806633 0.0752,0.438566 1.23033,4.287086 2.56681,8.552248 l 2.42997,7.75483 4.66481,1.392617 4.66481,1.392617 17.14455,-4.596516 c 16.46226,-4.413586 17.19104,-4.704146 18.31261,-7.301335 0.64243,-1.487659 1.05152,-2.820242 0.90908,-2.961312 -0.83695,-0.828864 -31.33308,-9.04339 -33.5827,-9.045926 -1.49683,-0.0019 -5.9897,0.901063 -9.98415,2.006144 z m -114.76238,1.72339 c -6.7402,1.702429 -12.52169,3.251445 -12.84775,3.44227 -0.53233,0.31153 1.45595,8.195535 2.26912,8.997527 0.18306,0.180576 6.0065,1.93065 12.94096,3.889077 l 12.60811,3.560772 8.97783,-2.425837 8.97785,-2.425846 2.23355,-6.525307 c 1.24306,-3.631557 1.88744,-6.856247 1.45305,-7.271555 -0.42927,-0.410445 -4.24782,-1.764196 -8.48564,-3.008365 -9.13435,-2.681687 -10.96916,-2.566417 -28.12708,1.767264 z m 203.19856,3.515044 c -5.74173,1.480709 -12.07354,3.115967 -14.07067,3.633918 -3.59851,0.933257 -3.47669,0.984833 13.55281,5.73554 9.45117,2.636589 17.37747,4.604889 17.614,4.374022 0.90519,-0.883555 -4.76103,-16.434597 -5.98841,-16.435292 -0.36751,-2.03e-4 -5.36599,1.211103 -11.10773,2.691812 z M 44.557779,45.280201 c -1.147111,3.464266 -1.885121,6.496472 -1.640007,6.738218 0.525477,0.518255 26.027752,-6.095785 26.020115,-6.748357 -0.0057,-0.495306 -18.664254,-6.020212 -20.885725,-6.184406 -0.977016,-0.07224 -2.047885,1.826123 -3.494383,6.194545 z M 203.07473,43.816298 c -3.55988,0.958008 -6.62375,1.889482 -6.80862,2.069933 -0.18489,0.180461 3.23835,1.258196 7.60719,2.394964 4.36885,1.136768 8.51419,2.276686 9.2119,2.533157 1.33547,0.490897 1.07933,-1.621825 -0.78417,-6.468236 -1.04704,-2.723025 -1.07136,-2.724429 -9.2263,-0.529818 z m -36.54934,1.366932 c -0.33116,1.280795 -0.40278,2.525334 -0.15914,2.765627 0.62129,0.612753 9.62756,-1.707559 9.62956,-2.480896 0.002,-0.576158 -5.32702,-2.289628 -7.83292,-2.51877 -0.56946,-0.05208 -1.30634,0.953234 -1.6375,2.234039 z m 183.09056,3.262785 c 9.01924,29.585049 13.56946,74.954935 11.21921,111.866085 -1.66235,26.10782 -5.05642,48.48025 -9.84965,64.9253 -1.26407,4.33694 -2.10852,8.07254 -1.87651,8.30136 0.37341,0.36829 97.73068,-82.16888 106.2068,-90.03959 l 3.34696,-3.1079 -54.0197,-46.685262 C 374.93225,68.029131 350.28978,46.990689 349.88204,46.953941 c -0.40773,-0.03676 -0.52749,0.634683 -0.26609,1.492074 z M 52.752376,56.990251 c -12.214636,3.517252 -13.03179,3.891603 -13.505967,6.187371 -0.277578,1.343984 -0.362247,2.754019 -0.18813,3.133402 0.174096,0.379383 9.094217,3.439566 19.822494,6.8004 l 19.505922,6.110616 9.077945,-2.379956 c 4.992873,-1.308971 9.436339,-2.692998 9.874373,-3.075623 0.763021,-0.666492 -2.576976,-17.388924 -3.892749,-19.489865 -0.344086,-0.549424 -3.651599,-1.92095 -7.350028,-3.047868 l -6.724417,-2.048923 -6.809108,2.033332 c -3.744994,1.118347 -12.659659,3.718058 -19.810335,5.777114 z M 287.01326,52.267104 c -1.16678,1.185537 -5.85106,18.701213 -5.85938,21.909652 -0.004,1.522715 1.1245,2.195785 6.28361,3.747915 l 6.28845,1.891861 16.17108,-4.544642 c 31.45714,-8.840598 31.26729,-8.77525 30.33049,-10.440906 -0.5534,-0.98395 -8.14129,-3.733005 -21.99064,-7.967099 -17.3433,-5.302273 -21.95167,-6.398562 -25.62777,-6.096619 -2.46515,0.202486 -4.98327,0.877415 -5.59584,1.499838 z m -112.68221,0.870614 c -5.81748,1.713963 -10.84787,3.403228 -11.17862,3.753931 -0.49944,0.529556 -3.54775,12.449697 -3.55148,13.887773 -6.3e-4,0.244729 5.99749,2.324567 13.32916,4.621856 l 13.33031,4.176888 16.38087,-4.611448 c 9.00948,-2.536304 16.5005,-4.710567 16.64669,-4.831708 0.14621,-0.121141 -0.39147,-2.815705 -1.19484,-5.98793 l -1.46065,-5.767689 -13.74738,-4.11335 c -7.56106,-2.262344 -14.699,-4.142888 -15.8621,-4.178976 -1.1631,-0.03612 -6.87448,1.336699 -12.69196,3.050653 z m 83.43911,7.337916 c -5.8163,1.713606 -10.89973,3.432544 -11.29652,3.819846 -0.39678,0.387292 4.22179,2.2183 10.26349,4.068911 6.0417,1.85059 11.09144,3.235526 11.22162,3.077593 0.13019,-0.157913 0.7169,-2.689149 1.30377,-5.624957 0.5869,-2.935807 1.33341,-6.305921 1.65892,-7.489151 0.49241,-1.789918 0.32572,-2.051922 -0.99218,-1.559609 -0.87122,0.325441 -6.3428,1.993761 -12.1591,3.707367 z m -148.03681,3.792851 c 0.63822,3.073496 1.21167,5.666812 1.27435,5.762925 0.33338,0.511177 17.01366,-4.702736 17.15088,-5.361032 0.15557,-0.746209 -18.49254,-6.816349 -19.22938,-6.259349 -0.19593,0.148102 0.16595,2.78395 0.80415,5.857456 z m 32.53115,-1.755388 c -1.93041,0.562043 -3.51066,1.343586 -3.51168,1.736775 -0.002,0.710878 7.17071,2.956573 7.72257,2.417913 0.15895,-0.155158 0.57341,-1.382047 0.92102,-2.726419 0.72466,-2.80263 0.14378,-2.964297 -5.13191,-1.428269 z m 89.59801,2.316808 c 0.57143,1.472357 1.24059,1.620464 3.50304,0.775321 1.20651,-0.450702 1.26811,-0.717873 0.30442,-1.320725 -2.03745,-1.27458 -4.38339,-0.938525 -3.80746,0.545404 z m 5.41748,7.65569 c -3.41941,0.922062 -3.49719,1.032431 -2.97052,4.215318 0.29747,1.797648 1.01273,6.61207 1.58948,10.69872 0.64098,4.541758 1.51683,7.607931 2.25298,7.887281 2.06723,0.784466 26.61255,-6.182428 27.02537,-7.670822 0.20386,-0.735013 0.62031,-3.138191 0.92544,-5.340407 l 0.55478,-4.004004 -11.11897,-3.273508 C 242.9477,71.291346 242.12741,71.178477 237.27999,72.485595 Z m -114.21614,1.502337 c -5.60886,1.505933 -10.33532,2.863166 -10.50324,3.016071 -0.1679,0.152885 0.1804,3.280719 0.77402,6.950741 l 1.07932,6.672753 8.79452,2.434484 c 8.63802,2.391158 8.88554,2.408781 13.90857,0.990127 4.65205,-1.313895 5.15782,-1.704334 5.59874,-4.322039 0.26661,-1.582724 0.90578,-5.253288 1.42039,-8.156802 1.33488,-7.531663 1.37036,-7.43802 -3.3641,-8.879848 -5.94255,-1.809763 -6.22269,-1.78929 -17.70822,1.294513 z m 198.1033,4.912529 c -10.17483,2.600762 -17.9372,4.921371 -17.24974,5.156905 4.13468,1.416602 41.19248,11.501478 41.45136,11.280539 0.34344,-0.29308 -2.36055,-18.789178 -3.03277,-20.745158 -0.22798,-0.663334 -0.9218,-1.029405 -1.54183,-0.813503 -0.62003,0.215902 -9.45219,2.520446 -19.62702,5.121217 z M 36.632484,74.78208 c -0.628095,1.604405 -2.949639,17.063215 -2.622769,17.464534 0.151239,0.185693 8.051294,-1.764228 17.555691,-4.333139 9.504387,-2.56892 17.066683,-4.881839 16.805121,-5.139818 C 67.921315,82.33063 39.286598,73.870282 37.776296,73.734374 37.386505,73.699264 36.8718,74.170758 36.632484,74.78208 Z m 170.336376,5.585724 c -6.12021,1.594027 -10.97787,3.045969 -10.79479,3.226535 0.47786,0.471291 26.25388,7.486677 26.52725,7.219836 0.12538,-0.122385 -0.21121,-3.35119 -0.74796,-7.175145 -0.79361,-5.653648 -1.24507,-6.879453 -2.41639,-6.561041 -0.79224,0.215365 -6.44789,1.695787 -12.56811,3.289815 z m -49.67538,2.572682 c -0.35394,2.47821 -0.4027,4.743331 -0.10836,5.033616 0.29433,0.290295 4.81101,-0.609241 10.03705,-1.998937 5.22606,-1.389706 9.37241,-2.654463 9.21413,-2.810575 -0.60841,-0.60006 -14.68664,-4.543977 -16.5435,-4.634535 -1.68046,-0.08196 -2.04636,0.538883 -2.59929,4.410431 z m -65.760633,-0.664639 -3.177866,1.058179 5.12527,1.478811 c 6.398382,1.846136 7.452969,1.857862 6.761069,0.07514 -0.300861,-0.775143 -0.544993,-2.185321 -0.542533,-3.133708 0.0048,-1.858033 -1.262653,-1.777071 -8.16594,0.521617 z m 187.781863,1.46451 c -0.002,0.938617 0.4901,1.245906 1.43264,0.89382 0.79,-0.295122 1.91328,-0.541448 2.49617,-0.547446 1.41381,-0.01443 -1.32026,-1.738671 -2.79116,-1.760177 -0.62367,-0.0096 -1.13561,0.627096 -1.13765,1.413803 z m 6.78838,5.955631 c -3.49547,1.093106 -6.82992,2.282209 -7.40991,2.642465 -0.57999,0.360257 -1.34428,4.157537 -1.69844,8.438407 -0.35416,4.28087 -0.70795,8.56073 -0.78621,9.51081 -0.11669,1.41675 1.24344,2.1683 7.56235,4.17858 4.23757,1.34811 8.50614,2.48426 9.48573,2.52477 1.87888,0.0777 49.49573,-13.08071 50.61439,-13.98674 0.70532,-0.57127 -46.60782,-15.087154 -49.59836,-15.217003 -0.99779,-0.04329 -4.67408,0.815586 -8.16955,1.908711 z m -115.61821,2.152921 c -8.2101,2.434849 -15.01008,4.516714 -15.11109,4.626352 -0.10098,0.109639 -0.33512,2.58182 -0.52028,5.493729 l -0.33668,5.29439 14.95611,4.74523 c 8.22587,2.60987 15.77258,4.74375 16.77047,4.74194 1.92636,-0.004 37.41086,-9.99758 38.18711,-10.75527 0.25144,-0.24543 0.19309,-2.09351 -0.12968,-4.10684 l -0.58683,-3.660613 -7.81912,-2.326354 c -4.3005,-1.279491 -12.10201,-3.671669 -17.3367,-5.315955 -5.23468,-1.644276 -10.33396,-3.028751 -11.33174,-3.076609 -0.99777,-0.04789 -8.53147,1.905132 -16.74157,4.34 z M 55.759858,93.746337 c -12.402154,3.639486 -22.704853,6.616843 -22.894903,6.616353 -0.190059,-4.9e-4 -0.344927,0.49979 -0.344175,1.11175 0.0013,1.03671 43.162865,15.02115 46.387104,15.02951 1.452455,0.004 21.968906,-5.72839 23.235116,-6.49175 0.69487,-0.41891 -0.29435,-15.63661 -1.06592,-16.397604 -0.53686,-0.529495 -19.84286,-6.311611 -21.378808,-6.402926 -0.763975,-0.04538 -11.53626,2.89518 -23.938414,6.534667 z m 199.154692,5.095498 c -4.31742,1.283255 -8.20745,2.644635 -8.64451,3.025275 -0.43707,0.38063 3.02905,1.85815 7.70249,3.28336 l 8.49713,2.59131 0.63633,-3.16753 c 0.81084,-4.03623 0.91367,-8.062361 0.206,-8.064197 -0.30117,-7.81e-4 -4.08002,1.048528 -8.39744,2.331782 z m -139.36798,2.848005 c 0.34493,2.0815 0.77069,3.93853 0.94614,4.12674 0.49603,0.53211 12.1808,-2.8817 12.18256,-3.55925 0.002,-0.59874 -10.23079,-4.070031 -12.54239,-4.254969 -0.92886,-0.07441 -1.06637,0.790496 -0.58631,3.687479 z m 23.62212,-0.25452 c -0.27719,0.43753 0.10542,1.02679 0.85025,1.30943 0.82259,0.31216 1.35554,5.2e-4 1.3576,-0.79331 0.004,-1.43964 -1.41297,-1.77082 -2.20785,-0.51612 z m 100.36692,8.22209 c -0.89404,0.55348 -1.025,3.2948 -0.57327,12.00123 0.322,6.20615 0.82938,11.29081 1.12753,11.29926 0.29815,0.009 5.34209,-1.25344 11.20873,-2.80424 l 10.66665,-2.81962 0.0166,-6.385 0.0166,-6.385 -9.29147,-2.73071 c -10.27385,-3.01943 -11.48549,-3.2196 -13.1713,-2.17592 z m -114.07064,1.29883 -8.6116,2.32005 -0.0203,7.83054 -0.0203,7.83055 5.21213,1.59975 c 5.61837,1.72441 15.07022,2.16983 16.49136,0.77716 0.4809,-0.47127 1.01027,-5.43797 1.17638,-11.03711 l 0.30203,-10.18026 -2.26628,-0.63985 c -1.24646,-0.35191 -2.57802,-0.68057 -2.95903,-0.73036 -0.38102,-0.0498 -4.56798,0.9535 -9.30436,2.22953 z m 198.61801,4.75082 -21.7328,5.63146 4.98581,1.41607 c 22.50901,6.39301 40.36956,11.18165 40.65735,10.90075 0.61512,-0.60043 -0.88975,-23.57638 -1.54431,-23.57808 -0.3483,-9e-4 -10.41302,2.53252 -22.36605,5.6298 z m -292.825028,4.39372 c -0.333358,5.47226 -0.406764,10.14615 -0.163147,10.38645 0.461431,0.45508 34.392547,-8.42266 36.712404,-9.60544 0.929913,-0.47413 0.25656,-0.96341 -2.26367,-1.64489 -1.973023,-0.53351 -9.70614,-2.75332 -17.1847,-4.93292 -7.478551,-2.17961 -14.249296,-4.00564 -15.046083,-4.05785 -1.214108,-0.0794 -1.546859,1.51625 -2.054804,9.85465 z M 209.8288,117.22371 c -7.98868,2.12193 -13.91307,4.07706 -13.16535,4.34473 1.9185,0.68678 27.90535,7.77482 28.51055,7.77639 0.71816,0.002 0.65539,-14.71727 -0.0658,-15.42856 -0.33177,-0.32724 -0.63729,-0.58498 -0.6789,-0.5728 -0.0415,0.0121 -6.61183,1.7583 -14.60049,3.88024 z m -56.69684,4.68613 c -0.0211,4.16189 0.27161,5.54776 1.10649,5.24035 0.62427,-0.22985 6.02621,-1.73096 12.00428,-3.33578 5.97808,-1.60483 10.26843,-3.12208 9.53411,-3.37168 -8.567,-2.91191 -21.38961,-5.90731 -21.94739,-5.12698 -0.36791,0.5147 -0.68178,3.48203 -0.69749,6.59409 z m -63.880673,-0.9919 c 0.635347,0.62665 13.818243,4.39526 14.170873,4.05105 0.14891,-0.14535 0.13092,-2.04684 -0.04,-4.22552 l -0.31075,-3.96124 -7.152966,1.82829 c -3.934132,1.00555 -6.934366,2.0439 -6.667149,2.30742 z m 186.338003,0.10174 c -0.007,2.54474 0.0868,2.56759 4.9863,1.22027 l 3.6313,-0.99857 -3.17213,-1.1528 c -4.62879,-1.6822 -5.43905,-1.54365 -5.44547,0.9311 z m 8.14645,6.99083 -8.62544,2.79903 -0.0241,9.28546 -0.0241,9.28545 9.22383,2.85038 9.22382,2.85039 25.714,-7.28648 c 14.14271,-4.00757 25.10227,-7.5212 24.35459,-7.80811 -3.88307,-1.48999 -48.69409,-14.76504 -49.85642,-14.7697 -0.7484,-0.003 -5.2422,1.2541 -9.9862,2.79358 z m -106.138,-0.66256 c -4.74361,1.3939 -12.219,3.603 -16.61195,4.90911 l -7.98721,2.37474 0.25698,5.03393 0.25696,5.03392 16.31609,5.0516 c 11.66796,3.61249 16.96266,4.86578 18.58571,4.39936 1.24832,-0.35873 8.19326,-2.30609 15.43324,-4.32749 23.15522,-6.46488 21.78743,-5.84811 21.79776,-9.82916 l 0.009,-3.45062 -9.29128,-2.8066 c -5.11021,-1.54364 -13.57421,-4.15114 -18.80889,-5.79445 -5.23469,-1.6433 -9.92576,-3.01952 -10.42461,-3.05826 -0.49884,-0.0388 -4.78814,1.07001 -9.53175,2.46392 z M 55.123552,131.5219 c -13.093623,3.85383 -24.025534,7.22068 -24.293133,7.48187 -0.609686,0.59512 -2.169569,0.0665 24.95336,8.45836 l 22.914563,7.08991 12.683044,-3.58902 12.683054,-3.58901 0.0199,-7.68549 0.0199,-7.68551 -12.010531,-3.68854 c -6.605789,-2.02869 -12.269977,-3.71351 -12.587088,-3.74405 -0.317112,-0.0305 -11.289515,3.09765 -24.383147,6.95148 z m 197.901648,5.52459 c -4.20947,1.2479 -7.29579,2.60446 -6.85845,3.01454 0.84367,0.79114 12.96361,4.50361 14.71761,4.50816 0.65119,0.002 1.04089,-1.81625 1.04887,-4.89283 0.007,-2.69252 -0.2724,-4.89626 -0.62087,-4.89716 -0.34845,-9.1e-4 -4.07767,1.01937 -8.28716,2.26729 z m -135.33332,2.7007 c -0.005,1.95821 0.26105,3.56108 0.59141,3.56194 1.5457,0.004 10.29336,-3.03989 10.29477,-3.58225 0.001,-0.51255 -7.98361,-3.22713 -10.19675,-3.46649 -0.37411,-0.0405 -0.68435,1.5286 -0.68943,3.4868 z m 122.79673,7.2305 c -0.60473,0.38771 -1.2957,5.45923 -1.70721,12.53046 -0.657,11.28933 -0.60811,11.85581 0.9846,11.4089 7.37807,-2.07027 15.01937,-4.14992 18.28241,-4.97571 l 3.89689,-0.98622 -0.24902,-6.40121 -0.24901,-6.40119 -9.51798,-2.8439 c -11.22837,-3.35493 -10.17772,-3.14085 -11.44068,-2.33113 z m -114.00293,1.2554 c -10.29847,2.48429 -9.83659,1.96204 -9.55961,10.80905 l 0.2421,7.73278 7.43052,2.00164 c 6.56404,1.76822 7.88612,1.87158 11.33742,0.88641 4.60879,-1.31559 4.78004,-1.96881 3.73402,-14.24373 -0.63828,-7.49014 -0.81719,-8.01212 -2.94589,-8.59585 -1.24648,-0.34179 -2.79013,-0.4708 -3.43033,-0.28664 -0.64022,0.18414 -3.70392,0.94751 -6.80823,1.69634 z m 199.27727,4.60998 c -11.4328,2.95972 -21.08915,5.6538 -21.45853,5.98686 -0.36938,0.33304 8.92697,3.25389 20.65857,6.49075 11.7316,3.23686 21.46994,5.64994 21.64076,5.3624 0.82816,-1.39412 1.58941,-23.21708 0.80994,-23.2191 -0.47509,-0.001 -10.21794,2.41936 -21.65074,5.37909 z m -294.680618,4.70396 c 0.328431,5.50835 0.747533,10.18353 0.93137,10.38929 0.410878,0.45987 35.009445,-8.75282 35.967187,-9.57712 0.668986,-0.57578 -32.597978,-10.52732 -35.85964,-10.72711 -1.520044,-0.0931 -1.593688,0.60983 -1.038917,9.91494 z m 179.102818,-2.8483 c -6.7403,1.74344 -12.86801,3.38356 -13.61711,3.64471 -0.74909,0.26113 4.96099,2.2415 12.68907,4.40078 7.72808,2.15929 14.5618,3.75175 15.18604,3.53882 0.78913,-0.26919 1.14102,-2.71937 1.15482,-8.04088 0.0178,-6.87656 -0.14147,-7.60597 -1.56892,-7.18351 -0.87382,0.25861 -7.10358,1.89665 -13.8439,3.64008 z m -56.53074,9.27374 c 0.70167,0.69205 2.82462,0.21749 17.05437,-3.81224 l 6.35491,-1.79967 -11.7847,-3.31562 -11.7847,-3.31559 -0.28631,5.7602 c -0.15747,3.16813 0.0434,6.08545 0.44643,6.48292 z m -58.171777,-7.68368 c -3.028484,0.79926 -5.811991,1.71213 -6.185574,2.02859 -0.373582,0.31645 2.546051,1.41761 6.488074,2.447 l 7.167307,1.87162 0.32605,-3.89682 c 0.3796,-4.53676 0.25636,-4.5755 -7.795857,-2.45039 z m 180.008637,2.51361 c -0.007,2.55615 0.0695,2.60033 2.94389,1.70944 5.70966,-1.76964 5.77388,-1.86506 2.04904,-3.04477 -5.0216,-1.59041 -4.98532,-1.60013 -4.99293,1.33533 z m 8.38674,6.76966 -8.2553,2.40761 0.46872,5.00448 c 0.25782,2.75247 0.7217,7.17209 1.03087,9.8214 l 0.56213,4.81692 7.70433,2.57551 7.70432,2.5755 25.64307,-7.23368 c 14.10367,-3.97852 25.48289,-7.39165 25.28712,-7.58472 -0.77452,-0.76391 -50.00747,-15.33939 -50.91734,-15.07417 -0.53493,0.15595 -4.68751,1.36696 -9.22792,2.69115 z m -113.00503,1.3634 c -8.88783,2.60867 -16.33851,4.91758 -16.55708,5.1309 -0.21855,0.21333 -0.1028,2.73517 0.25728,5.60408 l 0.65463,5.21621 15.36254,4.77314 15.36254,4.77315 18.49835,-5.20677 c 10.17409,-2.86373 18.61567,-5.34358 18.75907,-5.51082 0.14339,-0.16723 0.52713,-1.98308 0.85277,-4.03521 l 0.59204,-3.73115 -10.20018,-3.12155 c -14.90924,-4.56264 -27.42268,-8.46732 -27.42245,-8.55685 1.1e-4,-0.043 -7.27166,2.05621 -16.15951,4.66487 z m -115.698986,2.13243 c -20.8078,6.08607 -23.810348,7.19545 -22.628727,8.36087 0.306357,0.30214 10.783242,3.75575 23.281947,7.67467 l 22.724941,7.12532 11.277886,-3.22174 11.277919,-3.22172 0.61075,-6.79464 c 0.33591,-3.73705 0.80103,-7.4619 1.03356,-8.27743 0.32589,-1.14286 -0.67674,-1.80239 -4.373506,-2.87684 -2.63799,-0.76671 -8.059586,-2.39 -12.048012,-3.60729 -3.988425,-1.2173 -7.795432,-2.04071 -8.460031,-1.82979 -0.664609,0.2109 -10.878149,3.21178 -22.696727,6.66859 z m 198.332596,5.4475 c -4.43426,1.29324 -7.74268,2.6587 -7.35206,3.03436 0.39064,0.37566 4.48327,1.87996 9.09474,3.34288 l 8.38448,2.65986 -0.004,-2.35366 c -0.005,-3.28477 -1.0145,-9.03203 -1.58608,-9.03352 -0.26121,-6.8e-4 -4.10295,1.05687 -8.5372,2.35008 z m -138.19009,2.66983 c -0.34804,1.99033 -0.42779,3.82094 -0.17721,4.06808 0.25057,0.24715 3.40411,-0.40394 7.00785,-1.44684 3.60375,-1.04289 6.19737,-2.23235 5.76363,-2.64325 -0.80445,-0.76203 -8.99611,-3.41461 -10.90744,-3.53199 -0.57974,-0.0356 -1.33883,1.5637 -1.68683,3.554 z m 23.14332,5e-5 c -0.001,0.48956 0.61004,0.89168 1.35845,0.89362 0.74842,0.002 1.36179,-0.397 1.36306,-0.88656 0.001,-0.48954 -0.61002,-0.89168 -1.35844,-0.89362 -0.74841,-0.002 -1.3618,0.39702 -1.36307,0.88656 z m 99.17912,8.05934 c -0.8651,0.53926 -3.99045,16.96789 -4.00099,21.03156 -0.007,2.73958 5.60117,2.35079 19.21304,-1.33196 l 13.52882,-3.66026 -0.59109,-4.09655 c -0.32509,-2.25309 -0.91585,-4.6982 -1.3128,-5.43357 -0.79822,-1.47873 -18.7677,-7.01069 -23.07086,-7.10243 -1.49675,-0.0319 -3.19151,0.23504 -3.76612,0.59321 z M 123.54234,186.64 c -5.03433,1.29186 -9.23865,2.39928 -9.34291,2.46091 -0.10427,0.0616 -0.66204,3.05038 -1.2395,6.64165 -0.8226,5.11598 -0.80746,6.67745 0.0699,7.2126 0.61589,0.37567 5.14078,1.7544 10.05531,3.06383 l 8.9355,2.38082 6.35899,-1.84025 c 3.49744,-1.01214 6.35241,-2.1237 6.34435,-2.47017 -0.0382,-1.64305 -2.59415,-17.33527 -2.8675,-17.60488 -0.80254,-0.79153 -5.00074,-2.0755 -6.96851,-2.13125 -1.20579,-0.0342 -6.31133,0.99487 -11.34566,2.28674 z m 199.75095,4.50425 c -11.39945,2.97811 -20.61511,5.50801 -20.47923,5.62198 0.13589,0.11398 8.75403,2.53878 19.1514,5.38845 14.49337,3.97228 19.06975,4.92008 19.61334,4.06205 0.38995,-0.61554 1.1969,-4.17495 1.79325,-7.90981 0.59632,-3.73484 1.31365,-8.09182 1.59406,-9.68215 0.28043,-1.59032 0.18217,-2.89235 -0.21833,-2.89339 -0.40051,-0.001 -10.05501,2.43475 -21.45449,5.41287 z M 33.522764,187.37172 c 0.242057,0.85735 0.913163,5.06482 1.491328,9.34992 0.633746,4.69696 1.464383,7.77927 2.091571,7.76131 3.021335,-0.0866 31.699598,-8.6652 30.54723,-9.13776 -2.292079,-0.93988 -32.102286,-9.39426 -33.375336,-9.46547 -0.713878,-0.04 -1.017738,0.56073 -0.754793,1.492 z m 173.954396,5.6695 c -6.17884,1.60196 -11.38984,3.06453 -11.57999,3.25013 -0.29328,0.28629 23.0691,6.9157 24.38323,6.91911 0.25078,6.5e-4 0.74335,-2.3012 1.0946,-5.11522 0.35126,-2.81403 0.87052,-6.06135 1.15396,-7.21626 0.46126,-1.87954 0.28804,-2.02906 -1.65111,-1.42515 -1.19153,0.37109 -7.22184,1.9854 -13.40069,3.58739 z m -50.6383,2.90385 c 0.69118,4.28057 1.16063,5.28028 2.32614,4.9537 0.80312,-0.22503 4.83038,-1.28777 8.94949,-2.36166 4.1191,-1.07389 7.48991,-2.19766 7.49068,-2.49725 0.002,-0.57906 -15.78048,-5.2419 -18.20065,-5.37744 -1.24584,-0.0697 -1.31925,0.6157 -0.56566,5.28265 z m -65.144955,-0.91662 -3.631152,0.94454 3.172288,1.09184 c 7.561893,2.60267 7.924656,2.56339 8.346312,-0.90372 0.426867,-3.51002 0.958547,-3.43366 -7.887448,-1.13266 z m 187.478255,1.93913 c 0.16528,0.39925 1.32177,0.45642 2.57,0.12706 l 2.26949,-0.59884 -2.26558,-0.90812 c -2.13381,-0.8553 -3.25124,-0.25623 -2.57391,1.3799 z m 7.89031,5.25305 c -3.04095,0.82108 -5.74362,2.03744 -6.00591,2.70302 -0.70735,1.79487 4.16718,21.40081 5.69554,22.90821 3.0477,3.00588 6.57337,2.52419 29.84722,-4.07788 19.46936,-5.52285 22.69676,-6.68103 22.70056,-8.14625 0.004,-1.45353 -3.1702,-2.67274 -21.29744,-8.18101 -11.71602,-3.56011 -22.22641,-6.52378 -23.35642,-6.58593 -1.12999,-0.0621 -4.5426,0.55876 -7.58355,1.37984 z m -114.90285,1.89227 c -6.85328,2.01589 -12.60307,3.77615 -12.77734,3.91169 -0.17427,0.13554 0.38781,3.48641 1.24905,7.44636 l 1.56591,7.19993 11.80523,3.68539 11.80524,3.6854 15.20755,-4.23393 15.20754,-4.23393 1.48364,-5.7333 c 0.81602,-3.15332 1.36458,-5.84191 1.21903,-5.97464 -0.71491,-0.652 -30.45287,-9.26131 -32.24173,-9.33417 -1.13499,-0.0462 -7.67084,1.56532 -14.52412,3.5812 z m -114.675147,1.91907 c -19.778516,5.86236 -19.780137,5.86304 -19.231076,8.18355 0.30201,1.27637 0.82672,2.62628 1.166052,2.99976 0.339322,0.37349 9.274694,3.35216 19.856404,6.61926 l 19.239443,5.94018 7.138257,-1.97432 7.138256,-1.97431 1.383839,-5.01637 c 2.586483,-9.37594 3.591434,-14.4513 2.984737,-15.0739 -0.933438,-0.95785 -15.178992,-5.36884 -17.677489,-5.47365 -1.220041,-0.0512 -11.119321,2.54524 -21.998423,5.7698 z m 188.583657,8.75372 c -0.38691,0.35051 4.83475,2.36968 11.60372,4.48702 6.76896,2.11735 12.46948,3.69134 12.66781,3.49774 0.31037,-0.30295 -1.73959,-10.81635 -2.68857,-13.78867 -0.22351,-0.70004 -3.60774,-0.0397 -10.60389,2.0692 -5.65158,1.70358 -10.59217,3.38419 -10.97907,3.73471 z m -136.60876,-0.58803 c -0.57502,2.77272 -1.04673,5.51726 -1.04823,6.099 -0.003,1.06912 17.72592,-3.4172 19.40273,-4.90994 0.59657,-0.53109 -13.21262,-5.59542 -16.75409,-6.14434 -0.30519,-0.0473 -1.02538,2.18258 -1.60041,4.95528 z m 31.40151,-0.90285 c -1.37293,0.31753 -2.49713,0.92234 -2.49822,1.344 -0.002,0.74784 8.3004,3.56013 8.92346,3.0227 0.17261,-0.14887 0.0381,-1.51749 -0.29884,-3.04133 -0.44865,-2.02889 -1.01656,-2.65445 -2.1214,-2.33666 -0.82982,0.23867 -2.63206,0.69375 -4.005,1.01129 z m 90.94191,0.99901 c -5.3e-4,0.20473 -0.25218,1.00971 -0.55923,1.78884 -0.40068,1.01673 -0.14531,1.28921 0.90467,0.96525 4.81551,-1.48568 4.66573,-1.38169 3.25658,-2.26115 -1.36691,-0.85309 -3.60029,-1.15873 -3.60202,-0.49294 z m 3.12558,9.15443 -5.77053,1.4927 -2.37217,7.39858 c -1.30469,4.06922 -2.58225,7.93167 -2.83903,8.58324 -0.33352,0.84633 1.7546,1.77657 7.31157,3.25724 l 7.77845,2.07261 17.6726,-4.74957 c 13.18057,-3.54231 17.65727,-5.09201 17.61232,-6.09682 -0.18504,-4.13703 -1.24642,-4.72564 -16.30905,-9.0445 -8.18963,-2.34819 -15.4355,-4.3002 -16.10194,-4.33782 -0.66642,-0.0376 -3.80842,0.60336 -6.98222,1.42434 z m -115.01293,1.76043 c -7.39171,1.93569 -13.6055,3.51902 -13.80843,3.51849 -0.41736,-0.001 -3.30084,9.11491 -2.95516,9.34263 1.80228,1.18725 24.99374,6.73635 28.18797,6.74464 4.29959,0.0111 22.39339,-4.201 22.36288,-5.20598 -0.009,-0.28694 -0.94146,-3.49599 -2.07278,-7.13124 l -2.05695,-6.60955 -6.74851,-1.99846 c -3.71168,-1.09914 -7.36075,-2.03928 -8.10904,-2.08921 -0.74829,-0.0498 -7.40828,1.49298 -14.79998,3.42868 z m 183.78058,9.44655 c 0.59418,0.29483 6.92113,2.09657 14.05988,4.00386 11.022,2.9448 13.1055,3.27352 13.81462,2.17958 0.8201,-1.26516 5.43261,-14.12972 5.43528,-15.15933 7.5e-4,-0.28901 -7.73672,1.49172 -17.19437,3.95717 -9.45765,2.46546 -16.70959,4.72388 -16.11541,5.01872 z M 43.660426,232.5706 c 1.24865,3.67492 2.700521,6.68276 3.226379,6.68413 1.881384,0.005 21.624623,-5.53123 21.204287,-5.9458 -0.610609,-0.60223 -23.34011,-7.21874 -25.175911,-7.32866 -1.355484,-0.0811 -1.272654,0.65138 0.745245,6.59033 z m 159.336824,-0.77524 c -4.17747,1.01652 -7.4323,2.00907 -7.23297,2.20566 0.53034,0.52307 12.63618,3.89254 13.9978,3.89607 1.14944,0.003 2.36799,-2.36328 3.52867,-6.85221 0.51576,-1.99471 0.36468,-2.24189 -1.04773,-1.71427 -0.90772,0.33908 -5.06832,1.44822 -9.24577,2.46475 z m -37.03821,1.31324 c 0.34063,1.34616 0.76784,2.59403 0.94937,2.77307 0.18151,0.17904 2.41651,-0.15989 4.96664,-0.75317 2.55014,-0.59327 4.47019,-1.24284 4.26676,-1.44347 -0.51406,-0.507 -8.06651,-2.82149 -9.57001,-2.93278 -0.89913,-0.0665 -1.06472,0.57021 -0.61276,2.35635 z m 125.33834,5.51644 c -1.19283,0.44557 -1.13846,1.0586 0.4145,4.6741 2.48572,5.78715 7.30566,13.51945 8.43731,13.53543 0.51824,0.008 4.15193,1.39802 8.07485,3.09043 l 7.13258,3.07713 4.05661,-3.28149 c 3.81611,-3.08694 9.17586,-10.42793 8.2676,-11.32374 -0.62438,-0.61581 -31.75703,-10.09053 -33.49743,-10.1944 -0.83223,-0.0498 -2.13093,0.14046 -2.88602,0.42254 z m -113.63416,1.46789 c -4.19169,1.24264 -7.61762,2.73581 -7.61319,3.31813 0.005,0.58233 1.3431,3.46551 2.9748,6.40707 2.74977,4.9572 3.47774,5.5927 9.95448,8.69036 l 6.98776,3.34206 5.21365,-2.42031 c 5.91961,-2.74802 6.3729,-3.19785 10.20022,-10.12252 l 2.78434,-5.03765 -9.30469,-2.81548 c -5.11757,-1.54852 -9.71254,-2.96367 -10.21102,-3.14478 -1.88964,-0.68657 -3.58215,-0.41187 -10.98635,1.78312 z m -113.724251,1.58396 c -7.758807,2.26682 -14.239325,4.21551 -14.401153,4.33041 -1.201237,0.85293 7.826963,13.75775 11.109927,15.8804 2.159465,1.39622 2.454343,1.30518 8.964452,-2.76804 3.702352,-2.31645 7.987144,-4.87856 9.521753,-5.69354 2.821858,-1.49862 9.090992,-11.84942 7.900719,-13.04467 -0.78014,-0.78339 -6.018672,-2.66664 -7.663178,-2.75492 -0.729101,-0.0391 -7.673733,1.78353 -15.43252,4.05036 z m 203.615981,3.97278 -8.17096,2.45187 8.83993,1.15517 c 4.86197,0.63533 9.65706,1.41195 10.65575,1.7258 1.95906,0.61567 2.02903,1.11096 -0.88802,-6.2862 -0.49475,-1.25464 -1.20695,-2.10505 -1.58266,-1.88983 -0.3757,0.21522 -4.36002,1.49468 -8.85404,2.84319 z M 99.853937,245.17779 c -0.58459,1.4834 -0.22163,1.57249 2.999093,0.7362 2.05686,-0.5341 2.09059,-0.62709 0.45685,-1.25926 -2.57186,-0.99518 -2.87574,-0.94918 -3.455943,0.52306 z m 52.938193,2.36259 c -1.21154,0.76384 -1.2118,0.86257 -0.002,0.88863 0.74838,0.0161 2.28464,0.27479 3.4139,0.57481 1.63329,0.43392 1.93862,0.25018 1.49284,-0.89838 -0.62607,-1.61312 -2.83784,-1.86794 -4.90444,-0.56506 z m 67.39814,2.47201 c -0.20282,0.60019 0.70331,0.8158 2.41293,0.57413 1.50573,-0.21285 2.5002,-0.76621 2.20995,-1.22967 -0.68405,-1.09226 -4.20082,-0.59358 -4.62288,0.65554 z"
     id="path3346"
     inkscape:connector-curvature="0" />
</svg>
